<svg xmlns="http://www.w3.org/2000/svg" viewBox="0 0 48 48"><path d="M24,2A22,22,0,1,0,46,24,22,22,0,0,0,24,2Zm0,42A20,20,0,1,1,44,24,20,20,0,0,1,24,44ZM24,6A18,18,0,1,0,42,24,18,18,0,0,0,24,6ZM40,24a15.56,15.56,0,0,1-.53,4h-11A6,6,0,0,0,30,24c0-.08,0-.16,0-.24h0V9.18A16,16,0,0,1,40,24ZM24,20a4,4,0,1,1-4,4A4,4,0,0,1,24,20ZM24,8a15.56,15.56,0,0,1,4,.53v11A6,6,0,0,0,24,18H9.18A16,16,0,0,1,24,8ZM8,24a15.56,15.56,0,0,1,.53-4h11A6,6,0,0,0,18,24V38.82A16,16,0,0,1,8,24ZM24,40a16.09,16.09,0,0,1-4-.53v-11A6,6,0,0,0,24,30H38.82A16,16,0,0,1,24,40Zm2-15H22V23h4Z" data-name="41 Camera, Camera Aperture, Camera Lens"/></svg>